<svg width="32" height="32" viewBox="0 0 32 32" fill="none" xmlns="http://www.w3.org/2000/svg"><path d="M16 0C7.163 0 0 7.163 0 16s7.163 16 16 16 16-7.163 16-16S24.837 0 16 0zm0 30.545C7.967 30.545 1.455 24.033 1.455 16 1.455 7.967 7.967 1.455 16 1.455c8.033 0 14.545 6.512 14.545 14.545 0 8.033-6.512 14.545-14.545 14.545z" fill="#000" fill-opacity="0.54"/><path d="M20.364 8.727h-8.727a2.91 2.91 0 00-2.91 2.91v8.726a2.909 2.909 0 002.91 2.91h8.727a2.909 2.909 0 002.909-2.91v-8.727a2.909 2.909 0 00-2.91-2.909zm-1.455 2.182h2.182v2.182H18.91v-2.182zM16 13.09a2.91 2.91 0 110 5.818 2.91 2.91 0 010-5.818zm5.818 7.272c0 .804-.65 1.455-1.454 1.455h-8.727a1.455 1.455 0 01-1.455-1.455v-5.09h1.527a4.364 4.364 0 108.582 0h1.527v5.09z" fill="#000" fill-opacity="0.54"/></svg>