<svg width="32" height="32" viewBox="0 0 32 32" fill="none" xmlns="http://www.w3.org/2000/svg"><path d="M14.546 12.363v1.455H13.09V16h1.455v6.545h2.909V16h1.935l.247-2.182h-2.182v-1.273c0-.589.058-.902.967-.902h1.215V9.454h-1.95c-2.327 0-3.141 1.091-3.141 2.91z" fill="#000" fill-opacity="0.54"/><path d="M16 0C7.163 0 0 7.163 0 16s7.163 16 16 16 16-7.163 16-16S24.837 0 16 0zm0 30.545C7.967 30.545 1.455 24.033 1.455 16 1.455 7.967 7.967 1.455 16 1.455c8.033 0 14.545 6.512 14.545 14.545 0 8.033-6.512 14.545-14.545 14.545z" fill="#000" fill-opacity="0.54"/></svg>