<svg width="32" height="32" viewBox="0 0 32 32" fill="none" xmlns="http://www.w3.org/2000/svg"><path d="M23.6 10.4a6.046 6.046 0 01-1.898.727 3.004 3.004 0 00-2.182-.93 2.96 2.96 0 00-2.982 2.908c0 .226.028.45.08.67a8.517 8.517 0 01-6.153-3.07 2.91 2.91 0 00-.407 1.455c0 .988.501 1.908 1.331 2.444a3.012 3.012 0 01-1.353-.371v.036a2.953 2.953 0 002.393 2.91 3.05 3.05 0 01-1.345.05 2.982 2.982 0 002.785 2.037 6.044 6.044 0 01-4.414 1.229 8.545 8.545 0 004.574 1.323 8.364 8.364 0 008.517-8.356v-.378A6.046 6.046 0 0024 11.564a6.035 6.035 0 01-1.716.465A2.96 2.96 0 0023.6 10.4z" fill="#000" fill-opacity="0.54"/><path d="M16 0C7.163 0 0 7.163 0 16s7.163 16 16 16 16-7.163 16-16S24.837 0 16 0zm0 30.545C7.967 30.545 1.455 24.033 1.455 16 1.455 7.967 7.967 1.455 16 1.455c8.033 0 14.545 6.512 14.545 14.545 0 8.033-6.512 14.545-14.545 14.545z" fill="#000" fill-opacity="0.54"/></svg>